<?xml version="1.0"?>
<svg id="Layer_2" data-name="Layer 2" xmlns="http://www.w3.org/2000/svg" viewBox="0 0 403.48 100.14">
  <defs></defs>
  <g id="Layer_1-2" data-name="Layer 1">
    <g>
      <path fill="#ffffff" d="M163.13,66.41c0,11.39-10.12,15.85-19.43,15.85-14.59,0-20.99-8.04-22.4-17.04h8.48c1.56,6.03,5.58,9.15,13.84,9.15,7,0,11.01-2.75,11.01-7.59s-4.24-5.66-13.92-7.81c-10.12-2.23-18.01-5.06-18.01-14.81,0-10.35,9.15-15.78,19.13-15.78,13.1,0,19.13,6.77,20.62,15.03h-8.49c-1.49-4.32-5.06-7.14-12.06-7.14s-10.79,3.13-10.79,7.67c0,3.72,2.98,4.91,11.61,6.77,13.17,2.9,20.39,5.66,20.39,15.7Z"></path>
      <path fill="#ffffff" d="M174.36,65.66v-17.34h-7.59v-7.89h7.59v-9.3l8.41-1.86v11.16h16.82v7.89h-16.82v16.9c0,5.95,2.75,9.23,8.04,9.23,2.61,0,5.51-.89,8.71-2.01l1.49,6.85c-2.23,1.34-7,2.98-11.69,2.98-8.41,0-14.96-5.28-14.96-16.6Z"></path>
      <path fill="#ffffff" d="M203.16,60.9c0-12.5,8.11-21.36,18.83-21.36,6.4,0,11.39,3.2,14.36,7.89v-7h8.41v40.93h-8.41v-6.85c-3.05,4.69-7.89,7.74-14.29,7.74-10.94,0-18.9-8.86-18.9-21.36ZM236.43,60.9c0-7.81-5.43-13.32-12.58-13.32s-12.21,5.51-12.21,13.32,5.14,13.32,12.21,13.32,12.58-5.43,12.58-13.32Z"></path>
      <path fill="#ffffff" d="M258.31,65.66v-17.34h-7.59v-7.89h7.59v-9.3l8.41-1.86v11.16h16.82v7.89h-16.82v16.9c0,5.95,2.75,9.23,8.04,9.23,2.61,0,5.51-.89,8.71-2.01l1.49,6.85c-2.23,1.34-7,2.98-11.69,2.98-8.41,0-14.96-5.28-14.96-16.6Z"></path>
      <path fill="#ffffff" d="M326.55,40.43v40.93h-8.41v-6.77c-2.9,4.69-7.29,7.67-13.62,7.67-9.08,0-14.51-6.03-14.51-16v-25.83h8.41v24.11c0,6.33,2.68,9.68,8.78,9.68,7,0,10.94-4.69,10.94-12.58v-21.21h8.41Z"></path>
      <path fill="#ffffff" d="M334.73,40.43h8.41v8.04c2.53-5.66,7.15-8.93,13.62-8.93,1.04,0,1.86.07,2.46.22v8.56c-.74-.07-1.41-.15-2.53-.15-7.67,0-13.55,4.32-13.55,14.44v18.76h-8.41v-40.93Z"></path>
      <path fill="#ffffff" d="M361.6,60.97c0-12.35,8.78-21.43,21.14-21.43,13.17,0,21.51,10.2,20.69,23.67h-33.19c.6,7.52,5.88,11.68,12.73,11.68,4.91,0,9-2.08,10.94-6.1h8.71c-3.2,9.15-11.02,13.4-19.72,13.4-12.43,0-21.29-8.86-21.29-21.21ZM394.42,56.36c-1.27-5.66-5.43-9.53-11.68-9.53s-10.72,3.95-12.06,9.53h23.74Z"></path>
      <path fill="#ffffff" d="M106.9,0h-63.9c-2.48,0-4.82.51-6.89,1.44-3.12,1.38-5.65,3.65-7.37,6.36-1.73,2.72-2.69,5.91-2.7,9.21,0,3.67,1.25,7.5,3.9,10.7l27.73,33.63H15.16L0,100.14h63.9c2.48,0,4.82-.51,6.89-1.44,3.12-1.38,5.65-3.65,7.37-6.36,1.73-2.72,2.69-5.91,2.7-9.2,0-3.68-1.25-7.51-3.89-10.71l-27.73-33.63h42.49L106.9,0ZM70.91,77.42c1.48,1.82,2.09,3.75,2.1,5.72,0,2.32-.94,4.66-2.55,6.36-.79.85-1.75,1.54-2.85,2.02s-2.31.77-3.72.77H11.5l9.02-23.08h43.61l6.77,8.22ZM42.77,30.95l-6.78-8.23c-1.48-1.82-2.09-3.75-2.1-5.71,0-2.33.94-4.67,2.55-6.37.79-.85,1.75-1.54,2.85-2.02s2.31-.76,3.72-.77h52.4l-9.02,23.09h-43.61Z"></path>
    </g>
  </g>
</svg>